<svg t="1762438508990" class="icon" viewBox="0 0 1024 1024" version="1.1" xmlns="http://www.w3.org/2000/svg" p-id="996" width="200" height="200"><path d="M796.672 360.8576c20.0704 14.336 41.7792 25.8048 65.536 34.4064l-30.3104 57.7536c-12.288-3.6864-24.576-8.6016-36.0448-15.1552-2.4576-1.2288-20.48-13.1072-54.4768-36.0448-26.624 11.4688-56.1152 17.6128-88.064 17.6128-62.2592 0-111.0016-18.432-146.2272-54.8864s-52.8384-88.064-52.8384-154.4192c0-65.9456 17.6128-117.5552 53.248-154.4192S590.2336 0 651.264 0c60.2112 0 107.7248 18.432 142.9504 55.296 35.2256 36.864 52.8384 88.064 52.8384 154.4192 0 34.816-4.9152 65.9456-14.7456 92.16-7.3728 20.48-19.2512 40.1408-35.6352 58.9824z m-65.536-46.2848c10.6496-12.288 18.432-27.4432 23.7568-44.6464 5.3248-17.6128 7.7824-37.6832 7.7824-60.2112 0-46.6944-10.24-81.92-31.1296-104.8576-20.48-22.9376-47.5136-34.816-81.1008-34.816-33.5872 0-60.6208 11.4688-81.1008 34.816s-31.1296 58.1632-31.1296 104.8576c0 47.5136 10.24 82.7392 31.1296 106.496 20.8896 23.3472 47.104 35.2256 78.6432 35.2256 11.8784 0 22.9376-2.048 33.5872-5.7344-16.384-11.0592-33.5872-19.2512-50.3808-25.3952l22.9376-46.6944c26.624 9.0112 52.4288 22.528 77.0048 40.96zM470.2208 618.496h149.504c33.5872 0 59.392 2.4576 77.0048 7.7824 23.7568 6.9632 44.2368 19.2512 61.0304 37.2736 16.7936 18.0224 29.9008 39.7312 38.5024 65.536 9.0112 25.8048 13.1072 57.7536 13.1072 95.8464 0 33.5872-4.096 62.2592-12.288 86.016-10.24 29.4912-24.576 53.248-43.4176 71.68-14.336 13.9264-33.5872 24.576-57.344 32.3584-18.0224 5.7344-42.1888 8.6016-72.4992 8.6016h-154.0096V618.496z m81.92 68.4032v268.288h61.0304c22.9376 0 39.3216-1.2288 49.5616-3.6864 13.1072-3.2768 24.1664-9.0112 33.1776-16.7936 8.6016-7.7824 15.9744-20.8896 21.2992-38.912 5.3248-18.0224 8.192-43.008 8.192-74.1376s-2.8672-55.296-8.192-72.0896c-5.3248-16.7936-13.1072-29.9008-23.3472-39.3216s-22.528-15.5648-38.0928-19.2512c-11.4688-2.4576-33.9968-3.6864-67.1744-3.6864l-36.4544-0.4096zM174.4896 389.12h181.4528v181.4528H174.4896V389.12z" fill="#8890A0" p-id="997"></path></svg>