<svg t="1762438540759" class="icon" viewBox="0 0 1024 1024" version="1.1" xmlns="http://www.w3.org/2000/svg" p-id="1141" width="200" height="200"><path d="M796.672 360.8576c15.9744-18.8416 27.8528-38.5024 35.2256-58.9824 9.8304-26.624 14.7456-57.344 14.7456-92.16 0-66.3552-17.6128-117.5552-52.8384-154.4192S711.0656 0 651.264 0c-60.6208 0-108.544 18.432-144.1792 55.296-35.2256 36.864-53.248 88.4736-53.248 154.4192 0 66.3552 17.6128 117.9648 52.8384 154.4192 35.2256 36.864 83.968 54.8864 146.2272 54.8864 32.3584 0 61.44-5.7344 88.064-17.6128 33.9968 22.528 52.0192 34.816 54.4768 36.0448 11.8784 6.5536 23.7568 11.4688 36.0448 15.1552l30.3104-57.7536c-22.9376-8.192-45.056-19.2512-65.1264-33.9968z m-42.1888-90.9312c-5.3248 17.6128-13.1072 32.3584-23.7568 44.6464-24.576-18.432-50.3808-31.9488-77.0048-41.3696L630.784 319.8976c17.2032 6.144 33.9968 14.7456 50.3808 25.3952-10.6496 3.6864-21.7088 5.7344-33.5872 5.7344-31.5392 0-57.7536-11.8784-78.6432-35.2256-20.8896-23.3472-31.1296-58.9824-31.1296-106.496 0-46.6944 10.6496-81.5104 31.1296-104.8576s47.5136-34.816 81.1008-34.816c33.1776 0 60.2112 11.4688 81.1008 34.816 20.48 22.9376 31.1296 58.1632 31.1296 104.8576 0.4096 22.9376-2.4576 43.008-7.7824 60.6208zM796.672 729.088c-8.6016-25.8048-21.7088-47.9232-38.5024-65.536-16.7936-18.0224-37.2736-30.3104-61.0304-37.2736-17.6128-5.3248-43.4176-7.7824-77.0048-7.7824h-149.504v405.504h154.0096c30.3104 0 54.4768-2.8672 72.4992-8.6016 24.1664-7.7824 43.4176-18.432 57.344-32.3584 18.8416-18.432 33.1776-42.1888 43.4176-71.68 8.192-24.1664 12.288-52.8384 12.288-86.016 0-38.0928-4.5056-70.0416-13.5168-96.256z m-79.4624 166.7072c-5.3248 18.0224-12.6976 31.1296-21.2992 38.912-8.6016 7.7824-19.6608 13.5168-33.1776 16.7936-10.24 2.4576-26.624 3.6864-49.5616 3.6864h-61.0304v-268.288h36.864c33.5872 0 55.7056 1.2288 67.1744 3.6864 15.1552 3.2768 27.8528 9.8304 38.0928 19.2512 9.8304 9.4208 17.6128 22.528 23.3472 39.3216 5.3248 16.7936 8.192 40.96 8.192 72.0896-0.4096 31.5392-3.2768 56.5248-8.6016 74.5472z" fill="#40444A" p-id="1142"></path><path d="M174.4896 389.12h181.4528v181.4528H174.4896z" fill="#40444A" p-id="1143"></path></svg>